<?xml version="1.0" encoding="UTF-8"?>
<svg xmlns="http://www.w3.org/2000/svg"
            viewBox="0 0 480 480"
            preserveAspectRatio="xMidYMid slice"
            
            aria-label="Fantasy pixel art castle illustration"
        >
            <defs>
                
                <linearGradient id="castleSky" x1="0%" y1="0%" x2="0%" y2="100%">
                    <stop offset="0%" stop-color="#4a76a8" />
                    <stop offset="45%" stop-color="#709bc6" />
                    <stop offset="75%" stop-color="#9bbde0" />
                    <stop offset="100%" stop-color="#c3daf0" />
                </linearGradient>

                
                <linearGradient id="snowPeak" x1="0%" y1="0%" x2="0%" y2="100%">
                    <stop offset="0%" stop-color="#e2edf8" />
                    <stop offset="30%" stop-color="#c2d5ea" />
                    <stop offset="100%" stop-color="#556b8a" />
                </linearGradient>
                <linearGradient id="leftPeak" x1="0%" y1="0%" x2="0%" y2="100%">
                    <stop offset="0%" stop-color="#627b9b" />
                    <stop offset="100%" stop-color="#3d4f68" />
                </linearGradient>

                
                <linearGradient id="magicBeamGrad" x1="0%" y1="100%" x2="0%" y2="0%">
                    <stop offset="0%" stop-color="#38bdf8" stop-opacity="0.9" />
                    <stop offset="50%" stop-color="#67e8f9" stop-opacity="0.7" />
                    <stop offset="100%" stop-color="#a5f3fc" stop-opacity="0.1" />
                </linearGradient>

                
                <linearGradient id="castleWall" x1="0%" y1="0%" x2="100%" y2="100%">
                    <stop offset="0%" stop-color="#a3b1c6" />
                    <stop offset="50%" stop-color="#7a8ba3" />
                    <stop offset="100%" stop-color="#56667d" />
                </linearGradient>
                <linearGradient id="castleWallShadow" x1="0%" y1="0%" x2="0%" y2="100%">
                    <stop offset="0%" stop-color="#56667d" />
                    <stop offset="100%" stop-color="#3b4859" />
                </linearGradient>
                <linearGradient id="castleRoof" x1="0%" y1="0%" x2="0%" y2="100%">
                    <stop offset="0%" stop-color="#3b82f6" />
                    <stop offset="50%" stop-color="#1d4ed8" />
                    <stop offset="100%" stop-color="#1e3a8a" />
                </linearGradient>

                
                <linearGradient id="terraceGrad1" x1="0%" y1="0%" x2="0%" y2="100%">
                    <stop offset="0%" stop-color="#4ade80" />
                    <stop offset="30%" stop-color="#22c55e" />
                    <stop offset="100%" stop-color="#15803d" />
                </linearGradient>
                <linearGradient id="terraceGrad2" x1="0%" y1="0%" x2="0%" y2="100%">
                    <stop offset="0%" stop-color="#22c55e" />
                    <stop offset="50%" stop-color="#16a34a" />
                    <stop offset="100%" stop-color="#166534" />
                </linearGradient>
                <linearGradient id="terraceGrad3" x1="0%" y1="0%" x2="0%" y2="100%">
                    <stop offset="0%" stop-color="#15803d" />
                    <stop offset="100%" stop-color="#14532d" />
                </linearGradient>

                
                <linearGradient id="waterfallGrad" x1="0%" y1="0%" x2="0%" y2="100%">
                    <stop offset="0%" stop-color="#bae6fd" />
                    <stop offset="50%" stop-color="#38bdf8" />
                    <stop offset="100%" stop-color="#0284c7" />
                </linearGradient>

                
                <linearGradient id="shootingStarGrad" x1="0%" y1="0%" x2="100%" y2="100%">
                    <stop offset="0%" stop-color="#ffffff" stop-opacity="1" />
                    <stop offset="50%" stop-color="#67e8f9" stop-opacity="0.8" />
                    <stop offset="100%" stop-color="#38bdf8" stop-opacity="0" />
                </linearGradient>

                
                <linearGradient id="airshipHull" x1="0%" y1="0%" x2="0%" y2="100%">
                    <stop offset="0%" stop-color="#64748b" />
                    <stop offset="50%" stop-color="#334155" />
                    <stop offset="100%" stop-color="#1e293b" />
                </linearGradient>
                <linearGradient id="airshipSail" x1="0%" y1="0%" x2="100%" y2="0%">
                    <stop offset="0%" stop-color="#38bdf8" />
                    <stop offset="50%" stop-color="#0284c7" />
                    <stop offset="100%" stop-color="#1e40af" />
                </linearGradient>

                
                <linearGradient id="crystalGrad" x1="0%" y1="0%" x2="100%" y2="100%">
                    <stop offset="0%" stop-color="#f0f9ff" />
                    <stop offset="40%" stop-color="#38bdf8" />
                    <stop offset="100%" stop-color="#0284c7" />
                </linearGradient>
                <linearGradient id="runeGold" x1="0%" y1="0%" x2="100%" y2="100%">
                    <stop offset="0%" stop-color="#fef08a" stop-opacity="0.95" />
                    <stop offset="50%" stop-color="#fbbf24" stop-opacity="0.8" />
                    <stop offset="100%" stop-color="#38bdf8" stop-opacity="0.9" />
                </linearGradient>
            </defs>

            
            <rect width="480" height="480" fill="url(#castleSky)" />

            
            <g class="svg-shooting-star-1" >
                <line x1="90" y1="20" x2="135" y2="44" stroke="url(#shootingStarGrad)" stroke-width="2.2" stroke-linecap="round" />
                <circle cx="135" cy="44" r="2" fill="#ffffff" />
            </g>
            <g class="svg-shooting-star-2" >
                <line x1="250" y1="18" x2="290" y2="40" stroke="url(#shootingStarGrad)" stroke-width="2" stroke-linecap="round" />
                <circle cx="290" cy="40" r="1.6" fill="#ffffff" />
            </g>

            
            <g transform="translate(60, 68)" >
                <g class="svg-airship">
                    
                    <ellipse cx="36" cy="14" rx="28" ry="11" fill="url(#airshipSail)" />
                    <path d="M 12 14 Q 36 6 60 14" stroke="#93c5fd" stroke-width="1" fill="none" opacity="0.6" />
                    <path d="M 16 18 Q 36 24 56 18" stroke="#1e3a8a" stroke-width="1" fill="none" opacity="0.6" />
                    
                    <line x1="20" y1="23" x2="25" y2="28" stroke="#cbd5e1" stroke-width="0.7" />
                    <line x1="36" y1="25" x2="36" y2="28" stroke="#cbd5e1" stroke-width="0.7" />
                    <line x1="52" y1="23" x2="47" y2="28" stroke="#cbd5e1" stroke-width="0.7" />
                    
                    <polygon points="22,28 50,28 46,36 26,36" fill="url(#airshipHull)" />
                    <rect x="29" y="30" width="3" height="3" rx="0.5" fill="#fef08a" class="svg-window-glow" />
                    <rect x="35" y="30" width="3" height="3" rx="0.5" fill="#fef08a" class="svg-window-glow" />
                    <rect x="41" y="30" width="3" height="3" rx="0.5" fill="#fef08a" class="svg-window-glow" />
                    
                    <circle cx="24" cy="32" r="2.2" fill="#38bdf8" class="svg-crystal-core" />
                    
                    <g transform="translate(19, 32)" class="svg-airship-propeller">
                        <line x1="-3" y1="-3" x2="3" y2="3" stroke="#f1f5f9" stroke-width="1" />
                        <line x1="-3" y1="3" x2="3" y2="-3" stroke="#f1f5f9" stroke-width="1" />
                        <circle cx="0" cy="0" r="1" fill="#38bdf8" />
                    </g>
                    
                    <polygon points="64,14 70,11 64,17" fill="#fbbf24" />
                </g>
            </g>

            
            <g class="svg-dragon-patrol" >
                <polygon points="24,18 36,21 44,22 48,20 42,24 32,25 22,22 14,24 8,28 12,24 18,20" fill="#0f172a" />
                <polygon points="46,18 49,20 45,21" fill="#1e293b" />
                <circle cx="46" cy="20.5" r="0.8" fill="#38bdf8" />
                <path class="svg-dragon-wing" d="M 28 20 Q 36 2 48 8 L 40 18 L 34 16 Z" fill="#1e293b" />
                <path class="svg-dragon-wing" d="M 26 23 Q 34 38 44 32 L 36 24 Z" fill="#1e293b" opacity="0.85" />
                
                <circle cx="10" cy="26" r="1.2" fill="#38bdf8" opacity="0.7" />
                <circle cx="4" cy="29" r="0.8" fill="#bae6fd" opacity="0.5" />
            </g>

            
            <g fill="#ffffff" opacity="0.88">
                <path d="M 20 80 h 70 v 14 h -70 z M 35 68 h 45 v 12 h -45 z M 48 58 h 24 v 10 h -24 z" />
                <path d="M 170 95 h 110 v 18 h -110 z M 190 80 h 75 v 15 h -75 z M 210 68 h 40 v 12 h -40 z" />
                <path d="M 330 110 h 80 v 16 h -80 z M 345 96 h 50 v 14 h -50 z" />
            </g>

            
            <g fill="#1e293b" opacity="0.75">
                <g transform="translate(0, 0)">
                    <polygon points="12,12 18,14 12,16 6,14" fill="#0f172a" />
                    <path class="bird-wing" d="M 12 12 Q 18 4 24 10 L 16 13 Z" fill="#1e293b" />
                    <path class="bird-wing" d="M 12 16 Q 18 24 24 18 L 16 15 Z" fill="#1e293b" />
                </g>
                <g transform="translate(-18, 14) scale(0.7)">
                    <polygon points="12,12 18,14 12,16 6,14" fill="#0f172a" />
                    <path class="bird-wing" d="M 12 12 Q 18 4 24 10 L 16 13 Z" fill="#1e293b" />
                    <path class="bird-wing" d="M 12 16 Q 18 24 24 18 L 16 15 Z" fill="#1e293b" />
                </g>
                <g transform="translate(-32, -10) scale(0.55)">
                    <polygon points="12,12 18,14 12,16 6,14" fill="#0f172a" />
                    <path class="bird-wing" d="M 12 12 Q 18 4 24 10 L 16 13 Z" fill="#1e293b" />
                    <path class="bird-wing" d="M 12 16 Q 18 24 24 18 L 16 15 Z" fill="#1e293b" />
                </g>
            </g>

            
            <polygon points="340,280 405,75 480,260 480,360 340,360" fill="url(#snowPeak)" />
            <polygon points="385,130 405,75 425,125 410,140 400,120" fill="#ffffff" />
            <polygon points="405,75 440,160 420,150" fill="#e2edf8" opacity="0.9" />

            
            <polygon points="0,290 90,130 190,260 210,320 0,320" fill="url(#leftPeak)" />
            <polygon points="65,170 90,130 115,165 95,180" fill="#b9cadf" />
            <polygon points="90,130 140,200 115,190" fill="#4d627d" />

            
            <g class="magic-beam">
                <polygon points="380,240 388,155 385,155 382,240" fill="url(#magicBeamGrad)" />
                <rect x="382" y="150" width="4" height="90" fill="#38bdf8" opacity="0.8" />
                <rect x="383" y="145" width="2" height="95" fill="#ffffff" opacity="0.95" />
                <circle cx="384" cy="200" r="12" fill="#38bdf8" opacity="0.4" />
            </g>

            
            <polygon points="120,400 150,290 320,290 360,400 240,430" fill="#475569" />
            <polygon points="135,390 160,300 270,300 260,390" fill="#64748b" />
            <polygon points="260,300 320,290 345,390 260,390" fill="#334155" />

            
            
            <rect x="225" y="140" width="34" height="110" fill="url(#castleWall)" />
            <rect x="242" y="140" width="17" height="110" fill="url(#castleWallShadow)" />

            
            <polygon points="218,140 242,95 266,140" fill="url(#castleRoof)" />
            <line x1="242" y1="95" x2="242" y2="82" stroke="#e2e8f0" stroke-width="2" />

            
            <g class="svg-rune-ring" >
                <circle cx="242" cy="115" r="32" stroke="url(#runeGold)" stroke-width="1" stroke-dasharray="4 3 8 2" fill="none" opacity="0.75" />
                <circle cx="242" cy="115" r="26" stroke="#38bdf8" stroke-width="0.8" stroke-dasharray="6 4" fill="none" opacity="0.6" />
                
                <polygon points="242,81 244,85 240,85" fill="#fef08a" />
                <polygon points="274,115 270,117 270,113" fill="#38bdf8" />
                <polygon points="242,149 240,145 244,145" fill="#fef08a" />
                <polygon points="210,115 214,113 214,117" fill="#38bdf8" />
            </g>

            
            <g transform="translate(206, 104)" >
                <g class="svg-crystal-float-1">
                    <polygon points="6,0 12,8 6,16 0,8" fill="url(#crystalGrad)" />
                    <polygon points="6,2 10,8 6,14" fill="#e0f2fe" opacity="0.85" />
                    <circle cx="6" cy="8" r="8" fill="#38bdf8" opacity="0.25" />
                </g>
            </g>
            <g transform="translate(266, 116)" >
                <g class="svg-crystal-float-2">
                    <polygon points="5,0 10,6 5,12 0,6" fill="url(#crystalGrad)" />
                    <polygon points="5,1 8,6 5,11" fill="#e0f2fe" opacity="0.85" />
                    <circle cx="5" cy="6" r="6" fill="#38bdf8" opacity="0.25" />
                </g>
            </g>
            <g transform="translate(237, 68)" >
                <g class="svg-crystal-float-3">
                    <polygon points="4,0 8,5 4,10 0,5" fill="#fbbf24" />
                    <polygon points="4,1 7,5 4,9" fill="#fef08a" opacity="0.85" />
                </g>
            </g>

            
            <rect x="180" y="210" width="124" height="85" fill="url(#castleWall)" />
            <rect x="242" y="210" width="62" height="85" fill="url(#castleWallShadow)" />

            
            <rect x="160" y="180" width="28" height="90" fill="url(#castleWall)" />
            <polygon points="155,180 174,145 193,180" fill="url(#castleRoof)" />
            <line x1="174" y1="145" x2="174" y2="135" stroke="#e2e8f0" stroke-width="2" />

            
            <rect x="296" y="185" width="28" height="85" fill="url(#castleWallShadow)" />
            <polygon points="291,185 310,150 329,185" fill="url(#castleRoof)" />
            <line x1="310" y1="150" x2="310" y2="140" stroke="#e2e8f0" stroke-width="2" />

            
            <rect x="135" y="235" width="26" height="60" fill="url(#castleWall)" />
            <polygon points="130,235 148,205 166,235" fill="url(#castleRoof)" />
            
            <g transform="translate(144, 197)" >
                <rect x="2" y="6" width="4" height="4" fill="#334155" />
                <polygon points="0,6 8,6 6,3 2,3" fill="#64748b" />
                <g class="svg-brazier-fire">
                    <polygon points="4,-1 1,4 7,4" fill="#ea580c" />
                    <polygon points="4,0 2,4 6,4" fill="#f59e0b" />
                    <circle cx="4" cy="2" r="1" fill="#fef08a" />
                </g>
            </g>

            
            <rect x="323" y="240" width="26" height="55" fill="url(#castleWallShadow)" />
            <polygon points="318,240 336,210 354,240" fill="url(#castleRoof)" />
            
            <g transform="translate(332, 202)" >
                <rect x="2" y="6" width="4" height="4" fill="#334155" />
                <polygon points="0,6 8,6 6,3 2,3" fill="#64748b" />
                <g class="svg-brazier-fire">
                    <polygon points="4,-1 1,4 7,4" fill="#ea580c" />
                    <polygon points="4,0 2,4 6,4" fill="#f59e0b" />
                    <circle cx="4" cy="2" r="1" fill="#fef08a" />
                </g>
            </g>

            
            <g>
                <polygon points="242,82 256,87 242,92" fill="#38bdf8" />
                <polygon points="174,135 186,139 174,143" fill="#f59e0b" />
                <polygon points="310,140 322,144 310,148" fill="#38bdf8" />
            </g>

            
            <rect x="178" y="204" width="128" height="6" fill="#cbd5e1" />
            <g fill="#94a3b8">
                <rect x="180" y="198" width="8" height="6" />
                <rect x="194" y="198" width="8" height="6" />
                <rect x="208" y="198" width="8" height="6" />
                <rect x="268" y="198" width="8" height="6" />
                <rect x="282" y="198" width="8" height="6" />
                <rect x="296" y="198" width="8" height="6" />
            </g>

            
            <g>
                <circle cx="242" cy="180" r="16" fill="#38bdf8" opacity="0.4" />
                <circle cx="242" cy="180" r="10" fill="#38bdf8" opacity="0.9" />
                <circle cx="242" cy="180" r="6" fill="#e0f2fe" />
            </g>

            
            <rect x="238" y="225" width="8" height="15" rx="3" fill="#0f172a" />
            <rect x="240" y="227" width="4" height="11" rx="1.5" fill="#fef08a" class="svg-window-glow" />

            <rect x="200" y="235" width="6" height="12" rx="2" fill="#0f172a" />
            <rect x="201.5" y="237" width="3" height="8" rx="1" fill="#fef08a" class="svg-window-glow"  />

            <rect x="278" y="235" width="6" height="12" rx="2" fill="#0f172a" />
            <rect x="279.5" y="237" width="3" height="8" rx="1" fill="#67e8f9" class="svg-window-glow"  />

            <rect x="170" y="210" width="5" height="10" rx="2" fill="#0f172a" />
            <rect x="171" y="212" width="3" height="6" rx="1" fill="#fde047" class="svg-window-glow"  />

            <rect x="306" y="215" width="5" height="10" rx="2" fill="#0f172a" />
            <rect x="307" y="217" width="3" height="6" rx="1" fill="#fef08a" class="svg-window-glow"  />

            
            
            
            

            
            <path
                d="M 242 258 A 15 15 0 0 0 227 273 L 227 295 L 257 295 L 257 273 A 15 15 0 0 0 242 258 Z"
                fill="#090d16"
            />

            
            <path
                id="gate-light"
                d="M 242 259 A 14 14 0 0 0 228 273 L 228 295 L 256 295 L 256 273 A 14 14 0 0 0 242 259 Z"
                fill="#fef08a"
                opacity="0"
            />

            
            <g id="gate-door-left">
                
                <path
                    d="M 242 259 A 14 14 0 0 0 228 273 L 228 295 L 242 295 Z"
                    fill="#382214"
                />
                
                <line x1="233" y1="268" x2="233" y2="295" stroke="#25160d" stroke-width="0.8" />
                <line x1="238" y1="261" x2="238" y2="295" stroke="#25160d" stroke-width="0.8" />
                
                <rect x="228" y="271" width="10" height="2.5" fill="#1e293b" />
                <circle cx="230" cy="272.2" r="0.7" fill="#94a3b8" />
                <circle cx="236" cy="272.2" r="0.7" fill="#94a3b8" />
                
                <rect x="228" y="286" width="10" height="2.5" fill="#1e293b" />
                <circle cx="230" cy="287.2" r="0.7" fill="#94a3b8" />
                <circle cx="236" cy="287.2" r="0.7" fill="#94a3b8" />
                
                <circle cx="239" cy="280" r="1.5" stroke="#d97706" stroke-width="0.8" fill="none" />
                <circle cx="239" cy="278.5" r="0.8" fill="#fbbf24" />
            </g>

            
            <g id="gate-door-right">
                
                <path
                    d="M 242 259 A 14 14 0 0 1 256 273 L 256 295 L 242 295 Z"
                    fill="#2c1a0e"
                />
                
                <line x1="246" y1="261" x2="246" y2="295" stroke="#1c1008" stroke-width="0.8" />
                <line x1="251" y1="268" x2="251" y2="295" stroke="#1c1008" stroke-width="0.8" />
                
                <rect x="246" y="271" width="10" height="2.5" fill="#1e293b" />
                <circle cx="248" cy="272.2" r="0.7" fill="#94a3b8" />
                <circle cx="254" cy="272.2" r="0.7" fill="#94a3b8" />
                
                <rect x="246" y="286" width="10" height="2.5" fill="#1e293b" />
                <circle cx="248" cy="287.2" r="0.7" fill="#94a3b8" />
                <circle cx="254" cy="287.2" r="0.7" fill="#94a3b8" />
                
                <circle cx="245" cy="280" r="1.5" stroke="#d97706" stroke-width="0.8" fill="none" />
                <circle cx="245" cy="278.5" r="0.8" fill="#fbbf24" />
            </g>

            
            <line id="gate-seam" x1="242" y1="259" x2="242" y2="295" stroke="#120904" stroke-width="1" />

            
            <path
                id="gate-frame"
                d="M 226 295 L 226 272 A 16 16 0 0 1 258 272 L 258 295 L 256 295 L 256 273 A 14 14 0 0 0 228 273 L 228 295 Z"
                fill="#475569"
            />
            
            <polygon points="239,254 245,254 244,260 240,260" fill="#94a3b8" />

            
            <path
                id="gate-glow"
                d="M 225 295 L 225 271 A 17 17 0 0 1 259 271 L 259 295"
                stroke="#38bdf8"
                stroke-width="2.5"
                stroke-linecap="round"
                fill="none"
                opacity="0"
                
            />

            
            <g class="svg-gate-glyph" >
                
                <path d="M 230 284 L 232 281 L 230 279" stroke="#38bdf8" stroke-width="0.9" stroke-linecap="round" fill="none" opacity="0.85" />
                <circle cx="231" cy="275" r="0.8" fill="#67e8f9" />
                <path d="M 233 269 Q 236 265 238 267" stroke="#38bdf8" stroke-width="0.8" fill="none" opacity="0.85" />
                
                <path d="M 254 284 L 252 281 L 254 279" stroke="#38bdf8" stroke-width="0.9" stroke-linecap="round" fill="none" opacity="0.85" />
                <circle cx="253" cy="275" r="0.8" fill="#67e8f9" />
                <path d="M 251 269 Q 248 265 246 267" stroke="#38bdf8" stroke-width="0.8" fill="none" opacity="0.85" />
                
                <polygon points="242,251 244,254 240,254" fill="#fde047" opacity="0.9" />
            </g>

            
            <rect
                id="gate-clickzone"
                x="215"
                y="248"
                width="54"
                height="58"
                fill="transparent"
                
            />

            
            <polygon points="215,295 269,295 285,340 199,340" fill="#64748b" />
            <rect x="195" y="325" width="94" height="8" fill="#475569" />

            
            <g transform="translate(182, 305)" >
                <rect x="4" y="10" width="4" height="24" fill="#334155" />
                <rect x="2" y="6" width="8" height="5" fill="#64748b" />
                <g class="svg-brazier-fire">
                    <ellipse cx="6" cy="2" rx="5" ry="7" fill="#ea580c" />
                    <ellipse cx="6" cy="1" rx="3.5" ry="5" fill="#f59e0b" />
                    <circle cx="6" cy="0" r="2" fill="#fef08a" />
                    <circle cx="6" cy="2" r="10" fill="#f59e0b" opacity="0.3" />
                </g>
            </g>

            
            <g transform="translate(295, 305)">
                <rect x="4" y="10" width="4" height="24" fill="#334155" />
                <rect x="2" y="6" width="8" height="5" fill="#64748b" />
                <g>
                    <ellipse cx="6" cy="2" rx="6" ry="8" fill="#ea580c" />
                    <ellipse cx="6" cy="1" rx="4" ry="6" fill="#f59e0b" />
                    <circle cx="6" cy="0" r="2.5" fill="#fef08a" />
                    <circle cx="6" cy="2" r="14" fill="#f59e0b" opacity="0.35" />
                </g>
            </g>

            
            <polygon points="325,320 333,320 336,400 322,400" fill="url(#waterfallGrad)" />

            
            <g>
                <line x1="327" y1="330" x2="327" y2="350" stroke="#ffffff" stroke-width="1.5" opacity="0.8" />
                <line x1="331" y1="345" x2="331" y2="370" stroke="#e0f2fe" stroke-width="1.5" opacity="0.8" />
                <line x1="325" y1="365" x2="325" y2="390" stroke="#bae6fd" stroke-width="1.5" opacity="0.8" />
            </g>

            
            <g transform="translate(329, 396)" >
                <ellipse cx="0" cy="0" rx="14" ry="4" stroke="#bae6fd" stroke-width="1.5" fill="none" class="svg-splash-ripple" />
                <ellipse cx="0" cy="0" rx="9" ry="2.5" stroke="#e0f2fe" stroke-width="1.2" fill="none" class="svg-splash-ripple"  />
                
                <circle cx="-3" cy="-1" r="2.5" fill="#ffffff" class="svg-splash-foam" />
                <circle cx="0" cy="-2" r="3" fill="#ffffff" class="svg-splash-foam"  />
                <circle cx="3" cy="-1" r="2.2" fill="#e0f2fe" class="svg-splash-foam"  />
                
                <circle cx="-5" cy="-5" r="1" fill="#bae6fd" opacity="0.75" class="svg-mana-mote" />
                <circle cx="4" cy="-6" r="1.1" fill="#bae6fd" opacity="0.75" class="svg-mana-mote"  />
            </g>

            <path d="M 320 395 Q 330 385 340 395" stroke="#bae6fd" stroke-width="3" fill="none" opacity="0.8" />

            
            <g transform="translate(315, 355)">
                <circle cx="10" cy="10" r="7" fill="#38bdf8" />
                <circle cx="10" cy="10" r="4" fill="#e0f2fe" />
                <circle cx="10" cy="10" r="16" fill="#0284c7" opacity="0.35" />
            </g>

            
            <path d="M 200 340 Q 300 330 400 345 L 480 340 L 480 390 L 220 390 Z" fill="url(#terraceGrad1)" />
            <path d="M 200 340 Q 300 330 400 345 L 480 340" stroke="#86efac" stroke-width="3" fill="none" />

            <path d="M 180 380 Q 280 365 380 385 Q 430 395 480 380 L 480 435 L 180 435 Z" fill="url(#terraceGrad2)" />
            <path d="M 180 380 Q 280 365 380 385 Q 430 395 480 380" stroke="#4ade80" stroke-width="3.5" fill="none" />

            <path d="M 140 425 Q 260 410 370 430 Q 420 438 480 425 L 480 480 L 140 480 Z" fill="url(#terraceGrad3)" />
            <path d="M 140 425 Q 260 410 370 430 Q 420 438 480 425" stroke="#22c55e" stroke-width="4" fill="none" />

            
            <g>
                <circle cx="210" cy="270" r="2" fill="#fef08a" opacity="0.9" />
                <circle cx="350" cy="310" r="2.5" fill="#67e8f9" opacity="0.8" />
                <circle cx="280" cy="240" r="1.5" fill="#fde047" opacity="0.85" />
                <circle cx="160" cy="290" r="2" fill="#a5f3fc" opacity="0.9" />
                <circle cx="390" cy="230" r="2" fill="#38bdf8" opacity="0.8" />
                <circle cx="240" cy="330" r="1.5" fill="#facc15" opacity="0.85" />
                
                <circle cx="190" cy="360" r="1.8" fill="#86efac" class="svg-mana-mote"  />
                <circle cx="310" cy="280" r="1.6" fill="#fef08a" class="svg-mana-mote"  />
                <circle cx="270" cy="370" r="2" fill="#38bdf8" class="svg-mana-mote"  />
                <circle cx="120" cy="330" r="1.4" fill="#fde047" class="svg-mana-mote"  />
                <circle cx="420" cy="350" r="1.8" fill="#67e8f9" class="svg-mana-mote"  />
            </g>

            
            <g fill="#142c22">
                <polygon points="25,240 5,340 45,340" />
                <polygon points="25,260 0,360 50,360" />
                <polygon points="25,290 -5,400 55,400" />
                <polygon points="25,320 -10,480 60,480" />

                <polygon points="65,300 45,390 85,390" />
                <polygon points="65,330 40,430 90,430" />
                <polygon points="65,360 35,480 95,480" />

                <polygon points="105,370 85,440 125,440" />
                <polygon points="105,400 80,480 130,480" />
            </g>
        </svg>